<?xml version="1.0" encoding="UTF-8"?>
<svg id="Layer_1" xmlns="http://www.w3.org/2000/svg" xmlns:xlink="http://www.w3.org/1999/xlink" version="1.1" viewBox="0 0 318 157">
  <!-- Generator: Adobe Illustrator 29.1.0, SVG Export Plug-In . SVG Version: 2.1.0 Build 142)  -->
  <defs>
    <style>
      .st0 {
        fill: url(#linear-gradient2);
      }

      .st1 {
        fill: url(#linear-gradient1);
      }

      .st2 {
        fill: url(#linear-gradient);
      }
    </style>
    <linearGradient id="linear-gradient" x1="170.44" y1="101.74" x2="170.44" y2="156.71" gradientUnits="userSpaceOnUse">
      <stop offset="0" stop-color="#02addb"/>
      <stop offset="1" stop-color="#0284c7"/>
    </linearGradient>
    <linearGradient id="linear-gradient1" x1="147.4" y1="8.72" x2="147.4" y2="63.69" xlink:href="#linear-gradient"/>
    <linearGradient id="linear-gradient2" x1="163.07" y1=".06" x2="163.07" y2="141.71" xlink:href="#linear-gradient"/>
  </defs>
  <path class="st2" d="M308.29,156.71l-254.75-2.87c-7.34-.08-15.24-5.07-17.63-11.13l-11.86-30.06c-2.39-6.06,1.56-10.95,8.83-10.9l252.19,1.47c7.27.04,15.37,5.14,18.09,11.38l13.5,30.95c2.72,6.24-1.02,11.24-8.36,11.16Z"/>
  <path class="st1" d="M285.25,63.68l-254.75-2.87c-7.34-.08-15.24-5.07-17.63-11.13L1,19.62c-2.39-6.06,1.56-10.95,8.83-10.9l252.19,1.47c7.27.04,15.37,5.14,18.09,11.38l13.5,30.95c2.72,6.24-1.02,11.24-8.36,11.16Z"/>
  <path class="st0" d="M306.22,141.71l-246.29-.68c-7.1-.02-14.09-4.37-15.62-9.72L9.47,9.51C7.94,4.16,12.59-.07,19.86.06l252.19,4.54c7.27.13,14.2,4.44,15.48,9.62l29.22,118.13c1.28,5.18-3.43,9.37-10.53,9.35Z"/>
  <g>
    <path d="M92.87,68.46c-.54,2.69-1.66,4.9-3.35,6.63-1.69,1.73-3.88,3-6.57,3.8-2.68.8-5.69,1.21-9.03,1.21h-14.26l5.35,23h-12.89l-15.04-64.92h28.18c3.02,0,5.98.42,8.89,1.25,2.91.83,5.58,2.12,8.02,3.85,2.44,1.73,4.54,3.88,6.32,6.45,1.77,2.57,3.07,5.58,3.88,9.04.88,3.77,1.06,7,.51,9.69ZM75.11,52.86c-2-1.31-4.45-1.97-7.35-1.97h-14.89l3.84,16.51h15.09c6.17,0,8.61-2.78,7.3-8.35-.66-2.81-1.99-4.88-3.99-6.19Z"/>
    <path d="M136.33,103.1l-.77-3.25c-.88,1.24-2.18,2.26-3.9,3.06-1.72.8-3.72,1.21-6,1.21s-4.58-.36-6.91-1.07c-2.33-.71-4.5-1.78-6.53-3.2-2.03-1.42-3.82-3.21-5.38-5.38-1.56-2.16-2.68-4.73-3.38-7.7-.62-2.66-.67-5.01-.13-7.05.54-2.04,1.55-3.72,3.03-5.05,1.48-1.33,3.32-2.33,5.54-3.01,2.22-.68,4.71-1.02,7.49-1.02,2.22,0,4.12.2,5.7.6,1.58.4,2.95.85,4.11,1.34l-.66-2.41c-.41-1.73-1.33-3.2-2.75-4.41-1.43-1.21-3.31-1.81-5.66-1.81-1.48,0-2.78.06-3.89.19-1.11.12-2.15.31-3.11.56-.96.25-1.89.57-2.78.97-.89.4-1.82.91-2.79,1.53l-7-8.9c1.23-.8,2.43-1.51,3.61-2.13,1.18-.62,2.45-1.13,3.8-1.53,1.35-.4,2.81-.71,4.36-.93,1.55-.22,3.31-.32,5.29-.32,2.96,0,5.74.37,8.33,1.11,2.59.74,4.93,1.84,7.01,3.29,2.08,1.45,3.86,3.25,5.33,5.38,1.47,2.13,2.53,4.56,3.17,7.28l7.74,32.65h-12.89ZM131.5,82.7c-1.26-.68-2.56-1.19-3.89-1.53-1.33-.34-3.13-.51-5.39-.51-2.38,0-4.07.53-5.08,1.58-1,1.05-1.27,2.57-.81,4.54.41,1.73,1.31,3.25,2.72,4.54,1.41,1.3,3.45,1.95,6.14,1.95,2.08,0,3.79-.45,5.13-1.34,1.35-.9,2.22-1.93,2.61-3.11l-1.45-6.12Z"/>
    <path d="M161.64,103.1l-14.56-61.21,11.32-6.4,16.13,67.61h-12.89Z"/>
    <path d="M187.8,103.1l-14.65-61.21,11.31-6.4,16.23,67.61h-12.89Z"/>
    <path d="M247.8,81.17c.13.65.22,1.22.28,1.72h-29.09c.53,1.67,1.24,3.09,2.14,4.27.9,1.17,1.9,2.12,3,2.83,1.1.71,2.26,1.24,3.49,1.58,1.23.34,2.42.51,3.6.51,1.79,0,3.32-.31,4.59-.93,1.27-.62,2.24-1.45,2.91-2.5l10.93,7.6c-1.36,2.54-3.47,4.48-6.32,5.84-2.86,1.36-5.92,2.04-9.2,2.04-3.52,0-6.84-.6-9.94-1.81-3.11-1.21-5.91-2.91-8.42-5.1-2.51-2.19-4.68-4.85-6.51-7.98-1.83-3.12-3.21-6.6-4.13-10.43s-1.16-7.13-.8-10.25c.36-3.12,1.24-5.81,2.64-8.07,1.4-2.26,3.26-4,5.58-5.24,2.32-1.24,5.02-1.85,8.11-1.85s6.25.67,9.13,1.99c2.88,1.33,5.47,3.15,7.76,5.47,2.29,2.32,4.27,5.02,5.95,8.12,1.68,3.09,2.94,6.37,3.78,9.83.23.93.4,1.72.53,2.36ZM232,70.04c-.62-1.02-1.38-1.95-2.29-2.78-.91-.83-1.95-1.5-3.12-1.99-1.17-.49-2.46-.74-3.88-.74-2.35,0-3.99.83-4.95,2.5-.95,1.67-1.26,3.74-.91,6.21h16.67c-.39-1.11-.9-2.18-1.52-3.2Z"/>
    <path d="M289.43,101.15c-.84.87-2.09,1.58-3.74,2.13-1.66.56-3.48.83-5.45.83s-3.89-.36-5.68-1.07c-1.79-.71-3.41-1.72-4.85-3.01-1.44-1.3-2.69-2.84-3.75-4.64-1.06-1.79-1.85-3.77-2.38-5.94l-5.61-23h-8.14l-2.93-12.06h8.14l-3.05-12.52,11.28-6.4,4.63,18.92h11.65l2.96,12.06h-11.66l4.79,19.57c.57,2.35,1.36,3.91,2.35,4.68.99.77,2.26,1.16,3.81,1.16,1.17,0,2.2-.28,3.09-.83.88-.56,1.96-1.51,3.23-2.88l1.33,12.98Z"/>
  </g>
</svg>