<svg id="Layer_1" data-name="Layer 1" xmlns="http://www.w3.org/2000/svg" viewBox="0 0 512 256"><defs><style>.cls-1{fill:#d5ad7d;}</style></defs><path class="cls-1" d="M489.87,204.48l-71,40.2-28.65,16.21h0L512,192v-5.31l-40.28-10L212.07,311.68h0L243,295.59l-17.37-6.47,99.41-50.37,17.28,5.18,27.36-14.23-17-5,77.17-39.1,16.41,4.22,25.43-13.22-16.27-3.95.67-.34-22.49-5-31.43-7.62.64-.3-36.38-8.58-.3.13-15.55-3.77,1.55-.65L321,139.44l-1,.38-13.34-3.24L278.09,128,0,228.11v44.05l34.76,15,39.33-15.8,25.26,10.35L97.46,281v32.4l39,17.73,37.93-18.59L171,311.11l42,17.23V365l43.63,18.78,4.55.2,35.08-21.45,214.5-134.44L510.7,221,296.28,352l93.91-57.4,28.65-17.5,71-43.42L510.7,221l1.3-29ZM111.62,246.66l100.43-41.78L229.17,210,129,253.14Zm-32.1-12L64,228.93l100.57-38.28,15.11,4.53Zm103.55,38.57-15.42-5.75,100-46,15.78,4.73Zm208.4-97.51-79.31,37.11-15.62-4.56L376,171.79Zm-51.85-13.32-80.85,34.82-16.68-4.88,81.73-34ZM279.39,147l13.64,3.5-82.7,32.63-14.63-4.28-6.17,2.34Z" transform="translate(0 -128)"/></svg>